<mxfile host="app.diagrams.net" agent="Mozilla/5.0 (Windows NT 10.0; Win64; x64) AppleWebKit/537.36 (KHTML, like Gecko) Chrome/128.0.0.0 Safari/537.36" version="24.7.10" pages="6">
  <diagram name="Página-1" id="blzc-8AAlG0M4shi05QC">
    <mxGraphModel dx="954" dy="634" grid="1" gridSize="10" guides="1" tooltips="1" connect="1" arrows="1" fold="1" page="1" pageScale="1" pageWidth="827" pageHeight="1169" math="0" shadow="0">
      <root>
        <mxCell id="0" />
        <mxCell id="1" parent="0" />
        <mxCell id="zm2BmBpXGuDW6jkjF7kt-1" value="" style="whiteSpace=wrap;html=1;aspect=fixed;fillColor=#F8E0DD;strokeColor=#b85450;" vertex="1" parent="1">
          <mxGeometry x="250" y="190" width="410" height="410" as="geometry" />
        </mxCell>
        <mxCell id="zm2BmBpXGuDW6jkjF7kt-2" value="atendente&lt;div&gt;&lt;br&gt;&lt;/div&gt;" style="shape=umlActor;verticalLabelPosition=bottom;verticalAlign=top;html=1;outlineConnect=0;fillColor=#f8cecc;strokeColor=#b85450;" vertex="1" parent="1">
          <mxGeometry x="160" y="320" width="30" height="60" as="geometry" />
        </mxCell>
        <mxCell id="zm2BmBpXGuDW6jkjF7kt-3" value="" style="endArrow=none;html=1;rounded=0;entryX=0.415;entryY=0.22;entryDx=0;entryDy=0;entryPerimeter=0;" edge="1" parent="1" source="zm2BmBpXGuDW6jkjF7kt-2" target="zm2BmBpXGuDW6jkjF7kt-1">
          <mxGeometry width="50" height="50" relative="1" as="geometry">
            <mxPoint x="390" y="440" as="sourcePoint" />
            <mxPoint x="360" y="380" as="targetPoint" />
          </mxGeometry>
        </mxCell>
        <mxCell id="zm2BmBpXGuDW6jkjF7kt-4" value="cadastrar medicamento" style="ellipse;whiteSpace=wrap;html=1;fillColor=#f5f5f5;fontColor=#333333;strokeColor=#666666;" vertex="1" parent="1">
          <mxGeometry x="414" y="250" width="90" height="50" as="geometry" />
        </mxCell>
        <mxCell id="zm2BmBpXGuDW6jkjF7kt-5" value="" style="endArrow=none;html=1;rounded=0;" edge="1" parent="1" source="zm2BmBpXGuDW6jkjF7kt-2">
          <mxGeometry width="50" height="50" relative="1" as="geometry">
            <mxPoint x="200" y="350" as="sourcePoint" />
            <mxPoint x="440" y="390" as="targetPoint" />
          </mxGeometry>
        </mxCell>
        <mxCell id="zm2BmBpXGuDW6jkjF7kt-6" value="cadastrar perfumaria" style="ellipse;whiteSpace=wrap;html=1;fillColor=#f5f5f5;fontColor=#333333;strokeColor=#666666;" vertex="1" parent="1">
          <mxGeometry x="418" y="360" width="86" height="50" as="geometry" />
        </mxCell>
        <mxCell id="zm2BmBpXGuDW6jkjF7kt-7" value="&lt;b&gt;Sistema farmácia&lt;/b&gt;" style="text;html=1;align=center;verticalAlign=middle;whiteSpace=wrap;rounded=0;" vertex="1" parent="1">
          <mxGeometry x="425" y="200" width="60" height="30" as="geometry" />
        </mxCell>
        <mxCell id="zm2BmBpXGuDW6jkjF7kt-8" value="" style="endArrow=blockThin;html=1;rounded=0;exitX=1;exitY=0.5;exitDx=0;exitDy=0;entryX=0.5;entryY=0;entryDx=0;entryDy=0;endFill=0;" edge="1" parent="1" source="zm2BmBpXGuDW6jkjF7kt-4" target="zm2BmBpXGuDW6jkjF7kt-9">
          <mxGeometry width="50" height="50" relative="1" as="geometry">
            <mxPoint x="390" y="440" as="sourcePoint" />
            <mxPoint x="440" y="390" as="targetPoint" />
          </mxGeometry>
        </mxCell>
        <mxCell id="zm2BmBpXGuDW6jkjF7kt-9" value="Cadastrar produto" style="ellipse;whiteSpace=wrap;html=1;fillColor=#f5f5f5;fontColor=#333333;strokeColor=#666666;" vertex="1" parent="1">
          <mxGeometry x="520" y="300" width="110" height="60" as="geometry" />
        </mxCell>
        <mxCell id="zm2BmBpXGuDW6jkjF7kt-10" value="" style="endArrow=blockThin;html=1;rounded=0;exitX=1;exitY=0.5;exitDx=0;exitDy=0;entryX=0.5;entryY=1;entryDx=0;entryDy=0;endFill=0;" edge="1" parent="1" source="zm2BmBpXGuDW6jkjF7kt-6" target="zm2BmBpXGuDW6jkjF7kt-9">
          <mxGeometry width="50" height="50" relative="1" as="geometry">
            <mxPoint x="514" y="285" as="sourcePoint" />
            <mxPoint x="585" y="310" as="targetPoint" />
          </mxGeometry>
        </mxCell>
        <mxCell id="uT3SapPCFXqvyEgLU5fY-2" value="&lt;h2&gt;&lt;b&gt;Exemplo generalização&lt;/b&gt;&lt;/h2&gt;" style="text;html=1;align=center;verticalAlign=middle;whiteSpace=wrap;rounded=0;fillColor=#f8cecc;strokeColor=#b85450;" vertex="1" parent="1">
          <mxGeometry x="360" y="130" width="190" height="50" as="geometry" />
        </mxCell>
      </root>
    </mxGraphModel>
  </diagram>
  <diagram id="w3eXa23TYvgRl-1OOdKP" name="Página-2">
    <mxGraphModel dx="954" dy="634" grid="1" gridSize="10" guides="1" tooltips="1" connect="1" arrows="1" fold="1" page="1" pageScale="1" pageWidth="827" pageHeight="1169" math="0" shadow="0">
      <root>
        <mxCell id="0" />
        <mxCell id="1" parent="0" />
        <mxCell id="4iV9drGjI9hUxt-QTtrH-1" value="atendente" style="shape=umlActor;verticalLabelPosition=bottom;verticalAlign=top;html=1;outlineConnect=0;fillColor=#f8cecc;strokeColor=#b85450;" vertex="1" parent="1">
          <mxGeometry x="190" y="220" width="30" height="60" as="geometry" />
        </mxCell>
        <mxCell id="4iV9drGjI9hUxt-QTtrH-3" value="" style="whiteSpace=wrap;html=1;aspect=fixed;fillColor=#ffe5e5;" vertex="1" parent="1">
          <mxGeometry x="310" y="150" width="290" height="290" as="geometry" />
        </mxCell>
        <mxCell id="4iV9drGjI9hUxt-QTtrH-4" value="" style="endArrow=none;html=1;rounded=0;" edge="1" parent="1" target="4iV9drGjI9hUxt-QTtrH-5">
          <mxGeometry width="50" height="50" relative="1" as="geometry">
            <mxPoint x="230" y="250" as="sourcePoint" />
            <mxPoint x="440" y="300" as="targetPoint" />
          </mxGeometry>
        </mxCell>
        <mxCell id="4iV9drGjI9hUxt-QTtrH-10" style="edgeStyle=orthogonalEdgeStyle;rounded=0;orthogonalLoop=1;jettySize=auto;html=1;exitX=1;exitY=0.5;exitDx=0;exitDy=0;dashed=1;endArrow=blockThin;endFill=0;fillColor=#d5e8d4;strokeColor=#24480e;" edge="1" parent="1" source="4iV9drGjI9hUxt-QTtrH-5" target="4iV9drGjI9hUxt-QTtrH-8">
          <mxGeometry relative="1" as="geometry" />
        </mxCell>
        <mxCell id="4iV9drGjI9hUxt-QTtrH-5" value="cadastrar produto" style="ellipse;whiteSpace=wrap;html=1;fillColor=#f5f5f5;strokeColor=#666666;fontColor=#333333;" vertex="1" parent="1">
          <mxGeometry x="340" y="210" width="100" height="40" as="geometry" />
        </mxCell>
        <mxCell id="4iV9drGjI9hUxt-QTtrH-8" value="fazer login" style="ellipse;whiteSpace=wrap;html=1;fillColor=#f5f5f5;fontColor=#333333;strokeColor=#666666;" vertex="1" parent="1">
          <mxGeometry x="500" y="207.5" width="90" height="45" as="geometry" />
        </mxCell>
        <mxCell id="fvwkE7HfuSkuHQUrdlR8-1" value="&lt;b&gt;&lt;font style=&quot;font-size: 18px;&quot;&gt;Exemplo dependencia&lt;/font&gt;&lt;/b&gt;" style="text;html=1;align=center;verticalAlign=middle;whiteSpace=wrap;rounded=0;" vertex="1" parent="1">
          <mxGeometry x="340" y="110" width="260" height="30" as="geometry" />
        </mxCell>
        <mxCell id="HVwuzhToB4Ktx_FcwkYe-1" value="&lt;b&gt;Sistema de Farmacia&amp;nbsp;&lt;/b&gt;" style="text;html=1;align=center;verticalAlign=middle;whiteSpace=wrap;rounded=0;" vertex="1" parent="1">
          <mxGeometry x="390" y="160" width="126" height="30" as="geometry" />
        </mxCell>
      </root>
    </mxGraphModel>
  </diagram>
  <diagram id="JhJ7ear41Z40glbJHw2H" name="Página-3">
    <mxGraphModel dx="954" dy="634" grid="1" gridSize="10" guides="1" tooltips="1" connect="1" arrows="1" fold="1" page="1" pageScale="1" pageWidth="827" pageHeight="1169" math="0" shadow="0">
      <root>
        <mxCell id="0" />
        <mxCell id="1" parent="0" />
        <mxCell id="eLXr5xDe-_5b8DevexOZ-1" value="" style="whiteSpace=wrap;html=1;aspect=fixed;fillColor=#fdecec;" vertex="1" parent="1">
          <mxGeometry x="280" y="180" width="330" height="330" as="geometry" />
        </mxCell>
        <mxCell id="eLXr5xDe-_5b8DevexOZ-2" value="atendente&amp;nbsp;" style="shape=umlActor;verticalLabelPosition=bottom;verticalAlign=top;html=1;outlineConnect=0;fillColor=#f8cecc;strokeColor=#b85450;" vertex="1" parent="1">
          <mxGeometry x="180" y="270" width="30" height="60" as="geometry" />
        </mxCell>
        <mxCell id="eLXr5xDe-_5b8DevexOZ-4" value="" style="endArrow=none;html=1;rounded=0;" edge="1" parent="1" target="eLXr5xDe-_5b8DevexOZ-5">
          <mxGeometry width="50" height="50" relative="1" as="geometry">
            <mxPoint x="220" y="300" as="sourcePoint" />
            <mxPoint x="440" y="300" as="targetPoint" />
          </mxGeometry>
        </mxCell>
        <mxCell id="eLXr5xDe-_5b8DevexOZ-8" style="edgeStyle=orthogonalEdgeStyle;rounded=0;orthogonalLoop=1;jettySize=auto;html=1;entryX=0;entryY=0.5;entryDx=0;entryDy=0;endArrow=blockThin;endFill=0;dashed=1;strokeColor=#003300;" edge="1" parent="1" source="eLXr5xDe-_5b8DevexOZ-5" target="eLXr5xDe-_5b8DevexOZ-7">
          <mxGeometry relative="1" as="geometry" />
        </mxCell>
        <mxCell id="sXCdA9WJjJiSWKprz2CD-1" value="&lt;font style=&quot;font-size: 14px;&quot;&gt;&lt;b&gt;&amp;lt;&amp;lt;include&amp;gt;&amp;gt;&lt;/b&gt;&lt;/font&gt;" style="edgeLabel;html=1;align=center;verticalAlign=middle;resizable=0;points=[];" vertex="1" connectable="0" parent="eLXr5xDe-_5b8DevexOZ-8">
          <mxGeometry x="-0.0111" y="2" relative="1" as="geometry">
            <mxPoint as="offset" />
          </mxGeometry>
        </mxCell>
        <mxCell id="eLXr5xDe-_5b8DevexOZ-5" value="realizar venda" style="ellipse;whiteSpace=wrap;html=1;fillColor=#f5f5f5;fontColor=#333333;strokeColor=#666666;" vertex="1" parent="1">
          <mxGeometry x="320" y="240" width="100" height="40" as="geometry" />
        </mxCell>
        <mxCell id="eLXr5xDe-_5b8DevexOZ-7" value="registrar produto&amp;nbsp;" style="ellipse;whiteSpace=wrap;html=1;fillColor=#f5f5f5;fontColor=#333333;strokeColor=#666666;" vertex="1" parent="1">
          <mxGeometry x="480" y="360" width="90" height="40" as="geometry" />
        </mxCell>
        <mxCell id="eLXr5xDe-_5b8DevexOZ-11" value="&lt;b&gt;&lt;font style=&quot;font-size: 18px;&quot;&gt;Exemplo de dependencia tipo include&lt;/font&gt;&lt;/b&gt;" style="text;html=1;align=center;verticalAlign=middle;whiteSpace=wrap;rounded=0;" vertex="1" parent="1">
          <mxGeometry x="335" y="130" width="220" height="50" as="geometry" />
        </mxCell>
        <mxCell id="UsGRhoU_RhTynrqJ6vpT-1" value="&lt;b&gt;Sistema de Farmacia&lt;/b&gt;" style="text;html=1;align=center;verticalAlign=middle;whiteSpace=wrap;rounded=0;" vertex="1" parent="1">
          <mxGeometry x="414" y="190" width="146" height="30" as="geometry" />
        </mxCell>
      </root>
    </mxGraphModel>
  </diagram>
  <diagram id="PJXmyWvuxAdtfrM5LeOZ" name="Página-4">
    <mxGraphModel dx="954" dy="634" grid="1" gridSize="10" guides="1" tooltips="1" connect="1" arrows="1" fold="1" page="1" pageScale="1" pageWidth="827" pageHeight="1169" math="0" shadow="0">
      <root>
        <mxCell id="0" />
        <mxCell id="1" parent="0" />
        <mxCell id="RMPSKHZM9dgUVyaWupsk-1" value="Atendente" style="shape=umlActor;verticalLabelPosition=bottom;verticalAlign=top;html=1;outlineConnect=0;fillColor=#f8cecc;strokeColor=#b85450;" vertex="1" parent="1">
          <mxGeometry x="140" y="290" width="30" height="60" as="geometry" />
        </mxCell>
        <mxCell id="RMPSKHZM9dgUVyaWupsk-2" value="" style="whiteSpace=wrap;html=1;aspect=fixed;fillColor=#ffebeb;strokeColor=#383838;" vertex="1" parent="1">
          <mxGeometry x="240" y="215" width="415" height="415" as="geometry" />
        </mxCell>
        <mxCell id="RMPSKHZM9dgUVyaWupsk-3" value="&lt;b&gt;&lt;font style=&quot;font-size: 15px;&quot;&gt;Sistema de farmacia&lt;/font&gt;&lt;/b&gt;" style="text;html=1;align=center;verticalAlign=middle;whiteSpace=wrap;rounded=0;" vertex="1" parent="1">
          <mxGeometry x="337.5" y="240" width="220" height="40" as="geometry" />
        </mxCell>
        <mxCell id="RMPSKHZM9dgUVyaWupsk-4" value="" style="endArrow=none;html=1;rounded=0;" edge="1" parent="1" target="RMPSKHZM9dgUVyaWupsk-5">
          <mxGeometry width="50" height="50" relative="1" as="geometry">
            <mxPoint x="170" y="320" as="sourcePoint" />
            <mxPoint x="440" y="290" as="targetPoint" />
          </mxGeometry>
        </mxCell>
        <mxCell id="RMPSKHZM9dgUVyaWupsk-5" value="Realizar pagamento" style="ellipse;whiteSpace=wrap;html=1;fillColor=#f5f5f5;fontColor=#333333;strokeColor=#666666;" vertex="1" parent="1">
          <mxGeometry x="270" y="290" width="90" height="40" as="geometry" />
        </mxCell>
        <mxCell id="RMPSKHZM9dgUVyaWupsk-10" style="edgeStyle=orthogonalEdgeStyle;rounded=0;orthogonalLoop=1;jettySize=auto;html=1;entryX=1;entryY=0.5;entryDx=0;entryDy=0;endArrow=blockThin;endFill=0;dashed=1;" edge="1" parent="1" source="RMPSKHZM9dgUVyaWupsk-6" target="RMPSKHZM9dgUVyaWupsk-5">
          <mxGeometry relative="1" as="geometry" />
        </mxCell>
        <mxCell id="RMPSKHZM9dgUVyaWupsk-13" value="&lt;font style=&quot;font-size: 13px;&quot;&gt;&lt;b&gt;&amp;lt;&amp;lt;extends&amp;gt;&amp;gt;&lt;/b&gt;&lt;/font&gt;" style="edgeLabel;html=1;align=center;verticalAlign=middle;resizable=0;points=[];" vertex="1" connectable="0" parent="RMPSKHZM9dgUVyaWupsk-10">
          <mxGeometry x="-0.2182" relative="1" as="geometry">
            <mxPoint as="offset" />
          </mxGeometry>
        </mxCell>
        <mxCell id="RMPSKHZM9dgUVyaWupsk-6" value="Escolher forma de pagamento" style="ellipse;whiteSpace=wrap;html=1;fillColor=#f5f5f5;fontColor=#333333;strokeColor=#666666;" vertex="1" parent="1">
          <mxGeometry x="500" y="285" width="110" height="50" as="geometry" />
        </mxCell>
        <mxCell id="RMPSKHZM9dgUVyaWupsk-11" style="edgeStyle=orthogonalEdgeStyle;rounded=0;orthogonalLoop=1;jettySize=auto;html=1;entryX=1;entryY=1;entryDx=0;entryDy=0;endArrow=blockThin;endFill=0;dashed=1;" edge="1" parent="1" source="RMPSKHZM9dgUVyaWupsk-8" target="RMPSKHZM9dgUVyaWupsk-5">
          <mxGeometry relative="1" as="geometry" />
        </mxCell>
        <mxCell id="RMPSKHZM9dgUVyaWupsk-12" value="&lt;font style=&quot;font-size: 13px;&quot;&gt;&lt;b&gt;&amp;lt;&amp;lt;extends&amp;gt;&amp;gt;&lt;/b&gt;&lt;/font&gt;" style="edgeLabel;html=1;align=center;verticalAlign=middle;resizable=0;points=[];" vertex="1" connectable="0" parent="RMPSKHZM9dgUVyaWupsk-11">
          <mxGeometry x="-0.3973" y="2" relative="1" as="geometry">
            <mxPoint as="offset" />
          </mxGeometry>
        </mxCell>
        <mxCell id="RMPSKHZM9dgUVyaWupsk-8" value="Emitir nota fiscal" style="ellipse;whiteSpace=wrap;html=1;fillColor=#f5f5f5;fontColor=#333333;strokeColor=#666666;" vertex="1" parent="1">
          <mxGeometry x="480" y="370" width="108.5" height="60" as="geometry" />
        </mxCell>
      </root>
    </mxGraphModel>
  </diagram>
  <diagram id="NlxsTtxLCyey5ftARCLI" name="Página-5">
    <mxGraphModel dx="954" dy="634" grid="1" gridSize="10" guides="1" tooltips="1" connect="1" arrows="1" fold="1" page="1" pageScale="1" pageWidth="827" pageHeight="1169" math="0" shadow="0">
      <root>
        <mxCell id="0" />
        <mxCell id="1" parent="0" />
        <mxCell id="k93kzli6k-jcVubvvton-1" value="" style="whiteSpace=wrap;html=1;aspect=fixed;" vertex="1" parent="1">
          <mxGeometry x="120" y="30" width="640" height="640" as="geometry" />
        </mxCell>
        <mxCell id="k93kzli6k-jcVubvvton-2" value="&lt;font size=&quot;1&quot; color=&quot;#91423f&quot;&gt;&lt;b style=&quot;font-size: 18px;&quot;&gt;Sistema de vendas&lt;/b&gt;&lt;/font&gt;" style="text;html=1;align=center;verticalAlign=middle;whiteSpace=wrap;rounded=0;" vertex="1" parent="1">
          <mxGeometry x="240" y="90" width="380" height="50" as="geometry" />
        </mxCell>
        <mxCell id="k93kzli6k-jcVubvvton-3" value="Usuario&lt;div&gt;&lt;br&gt;&lt;/div&gt;" style="shape=umlActor;verticalLabelPosition=bottom;verticalAlign=top;html=1;outlineConnect=0;fillColor=#dae8fc;strokeColor=#6c8ebf;" vertex="1" parent="1">
          <mxGeometry x="30" y="250" width="30" height="60" as="geometry" />
        </mxCell>
        <mxCell id="k93kzli6k-jcVubvvton-4" value="Cadastrar produtos" style="ellipse;whiteSpace=wrap;html=1;fillColor=#f8cecc;strokeColor=#b85450;" vertex="1" parent="1">
          <mxGeometry x="230" y="170" width="140" height="60" as="geometry" />
        </mxCell>
        <mxCell id="k93kzli6k-jcVubvvton-5" value="" style="endArrow=none;html=1;rounded=0;exitX=0;exitY=0.5;exitDx=0;exitDy=0;" edge="1" parent="1" source="k93kzli6k-jcVubvvton-4">
          <mxGeometry width="50" height="50" relative="1" as="geometry">
            <mxPoint x="390" y="230" as="sourcePoint" />
            <mxPoint x="70" y="260" as="targetPoint" />
            <Array as="points" />
          </mxGeometry>
        </mxCell>
        <mxCell id="k93kzli6k-jcVubvvton-6" value="" style="endArrow=none;html=1;rounded=0;" edge="1" parent="1" target="k93kzli6k-jcVubvvton-7">
          <mxGeometry width="50" height="50" relative="1" as="geometry">
            <mxPoint x="70" y="260" as="sourcePoint" />
            <mxPoint x="290" y="280" as="targetPoint" />
          </mxGeometry>
        </mxCell>
        <mxCell id="k93kzli6k-jcVubvvton-7" value="Cadastrar Cliente" style="ellipse;whiteSpace=wrap;html=1;fillColor=#f8cecc;strokeColor=#b85450;" vertex="1" parent="1">
          <mxGeometry x="370" y="240" width="140" height="50" as="geometry" />
        </mxCell>
        <mxCell id="k93kzli6k-jcVubvvton-8" value="" style="endArrow=none;html=1;rounded=0;" edge="1" parent="1" target="k93kzli6k-jcVubvvton-9">
          <mxGeometry width="50" height="50" relative="1" as="geometry">
            <mxPoint x="70" y="260" as="sourcePoint" />
            <mxPoint x="480" y="370" as="targetPoint" />
          </mxGeometry>
        </mxCell>
        <mxCell id="k93kzli6k-jcVubvvton-9" value="Cancelar Pedido" style="ellipse;whiteSpace=wrap;html=1;fillColor=#f8cecc;strokeColor=#b85450;" vertex="1" parent="1">
          <mxGeometry x="380" y="300" width="120" height="50" as="geometry" />
        </mxCell>
        <mxCell id="k93kzli6k-jcVubvvton-10" value="" style="endArrow=none;html=1;rounded=0;exitX=1;exitY=0.5;exitDx=0;exitDy=0;" edge="1" parent="1" source="k93kzli6k-jcVubvvton-7">
          <mxGeometry width="50" height="50" relative="1" as="geometry">
            <mxPoint x="430" y="420" as="sourcePoint" />
            <mxPoint x="780" y="279" as="targetPoint" />
          </mxGeometry>
        </mxCell>
        <mxCell id="k93kzli6k-jcVubvvton-11" value="" style="endArrow=none;html=1;rounded=0;exitX=1;exitY=0.5;exitDx=0;exitDy=0;" edge="1" parent="1" source="k93kzli6k-jcVubvvton-9">
          <mxGeometry width="50" height="50" relative="1" as="geometry">
            <mxPoint x="430" y="420" as="sourcePoint" />
            <mxPoint x="780" y="280" as="targetPoint" />
          </mxGeometry>
        </mxCell>
        <mxCell id="k93kzli6k-jcVubvvton-12" value="Emitir relatorio de vendas" style="ellipse;whiteSpace=wrap;html=1;fillColor=#f8cecc;strokeColor=#b85450;" vertex="1" parent="1">
          <mxGeometry x="210" y="340" width="120" height="50" as="geometry" />
        </mxCell>
        <mxCell id="k93kzli6k-jcVubvvton-13" value="" style="endArrow=none;html=1;rounded=0;exitX=0;exitY=0.5;exitDx=0;exitDy=0;" edge="1" parent="1" source="k93kzli6k-jcVubvvton-12">
          <mxGeometry width="50" height="50" relative="1" as="geometry">
            <mxPoint x="430" y="420" as="sourcePoint" />
            <mxPoint x="70" y="290" as="targetPoint" />
          </mxGeometry>
        </mxCell>
        <mxCell id="k93kzli6k-jcVubvvton-14" value="Cadastrar pedido" style="ellipse;whiteSpace=wrap;html=1;fillColor=#f8cecc;strokeColor=#b85450;" vertex="1" parent="1">
          <mxGeometry x="380" y="370" width="120" height="50" as="geometry" />
        </mxCell>
        <mxCell id="k93kzli6k-jcVubvvton-15" value="" style="endArrow=none;html=1;rounded=0;exitX=1;exitY=0.5;exitDx=0;exitDy=0;" edge="1" parent="1" source="k93kzli6k-jcVubvvton-14">
          <mxGeometry width="50" height="50" relative="1" as="geometry">
            <mxPoint x="430" y="420" as="sourcePoint" />
            <mxPoint x="780" y="286" as="targetPoint" />
          </mxGeometry>
        </mxCell>
        <mxCell id="k93kzli6k-jcVubvvton-16" value="Consultar pedido" style="ellipse;whiteSpace=wrap;html=1;fillColor=#f8cecc;strokeColor=#b85450;" vertex="1" parent="1">
          <mxGeometry x="380" y="450" width="120" height="50" as="geometry" />
        </mxCell>
        <mxCell id="k93kzli6k-jcVubvvton-17" value="" style="endArrow=none;html=1;rounded=0;" edge="1" parent="1">
          <mxGeometry width="50" height="50" relative="1" as="geometry">
            <mxPoint x="490" y="480" as="sourcePoint" />
            <mxPoint x="780" y="290" as="targetPoint" />
          </mxGeometry>
        </mxCell>
      </root>
    </mxGraphModel>
  </diagram>
  <diagram id="zTVbv9TbLftAPytDEGK7" name="Página-6">
    <mxGraphModel dx="954" dy="634" grid="1" gridSize="10" guides="1" tooltips="1" connect="1" arrows="1" fold="1" page="1" pageScale="1" pageWidth="827" pageHeight="1169" math="0" shadow="0">
      <root>
        <mxCell id="0" />
        <mxCell id="1" parent="0" />
        <mxCell id="Yty9i7D4sYOurFFMCeKs-1" value="Usuario&lt;div&gt;&lt;br&gt;&lt;/div&gt;" style="shape=umlActor;verticalLabelPosition=bottom;verticalAlign=top;html=1;outlineConnect=0;fillColor=#fff2cc;strokeColor=#d6b656;" vertex="1" parent="1">
          <mxGeometry x="90" y="200" width="30" height="60" as="geometry" />
        </mxCell>
        <mxCell id="Yty9i7D4sYOurFFMCeKs-2" value="" style="whiteSpace=wrap;html=1;aspect=fixed;" vertex="1" parent="1">
          <mxGeometry x="170" y="170" width="550" height="550" as="geometry" />
        </mxCell>
        <mxCell id="Yty9i7D4sYOurFFMCeKs-3" value="&lt;font size=&quot;1&quot; color=&quot;#91423f&quot;&gt;&lt;b style=&quot;font-size: 18px;&quot;&gt;Sistema de vendas&lt;/b&gt;&lt;/font&gt;" style="text;html=1;align=center;verticalAlign=middle;whiteSpace=wrap;rounded=0;" vertex="1" parent="1">
          <mxGeometry x="280" y="180" width="380" height="50" as="geometry" />
        </mxCell>
        <mxCell id="Yty9i7D4sYOurFFMCeKs-4" value="Cadastrar cliente" style="ellipse;whiteSpace=wrap;html=1;fillColor=#ffe6cc;strokeColor=#d79b00;" vertex="1" parent="1">
          <mxGeometry x="280" y="220" width="120" height="50" as="geometry" />
        </mxCell>
        <mxCell id="Yty9i7D4sYOurFFMCeKs-5" value="Cadastrar vendas" style="ellipse;whiteSpace=wrap;html=1;fillColor=#ffe6cc;strokeColor=#d79b00;" vertex="1" parent="1">
          <mxGeometry x="280" y="300" width="120" height="50" as="geometry" />
        </mxCell>
        <mxCell id="Yty9i7D4sYOurFFMCeKs-6" value="Fazer backups" style="ellipse;whiteSpace=wrap;html=1;fillColor=#ffe6cc;strokeColor=#d79b00;" vertex="1" parent="1">
          <mxGeometry x="354" y="490" width="120" height="50" as="geometry" />
        </mxCell>
        <mxCell id="Yty9i7D4sYOurFFMCeKs-7" value="" style="endArrow=none;html=1;rounded=0;entryX=0;entryY=0.5;entryDx=0;entryDy=0;" edge="1" parent="1" source="Yty9i7D4sYOurFFMCeKs-1" target="Yty9i7D4sYOurFFMCeKs-4">
          <mxGeometry width="50" height="50" relative="1" as="geometry">
            <mxPoint x="480" y="420" as="sourcePoint" />
            <mxPoint x="530" y="370" as="targetPoint" />
          </mxGeometry>
        </mxCell>
        <mxCell id="Yty9i7D4sYOurFFMCeKs-8" value="" style="endArrow=none;html=1;rounded=0;entryX=0;entryY=0.5;entryDx=0;entryDy=0;" edge="1" parent="1" target="Yty9i7D4sYOurFFMCeKs-5">
          <mxGeometry width="50" height="50" relative="1" as="geometry">
            <mxPoint x="120" y="230" as="sourcePoint" />
            <mxPoint x="530" y="370" as="targetPoint" />
          </mxGeometry>
        </mxCell>
        <mxCell id="Yty9i7D4sYOurFFMCeKs-9" value="sistema&lt;div&gt;&lt;br&gt;&lt;/div&gt;" style="shape=umlActor;verticalLabelPosition=bottom;verticalAlign=top;html=1;outlineConnect=0;fillColor=#fff2cc;strokeColor=#d6b656;" vertex="1" parent="1">
          <mxGeometry x="590" y="520" width="30" height="60" as="geometry" />
        </mxCell>
        <mxCell id="Yty9i7D4sYOurFFMCeKs-10" value="" style="endArrow=none;html=1;rounded=0;exitX=1;exitY=0.5;exitDx=0;exitDy=0;" edge="1" parent="1" source="Yty9i7D4sYOurFFMCeKs-6" target="Yty9i7D4sYOurFFMCeKs-9">
          <mxGeometry width="50" height="50" relative="1" as="geometry">
            <mxPoint x="630" y="440" as="sourcePoint" />
            <mxPoint x="680" y="390" as="targetPoint" />
          </mxGeometry>
        </mxCell>
      </root>
    </mxGraphModel>
  </diagram>
</mxfile>
